<svg width="36" height="36" viewBox="0 0 36 36" fill="none" xmlns="http://www.w3.org/2000/svg">
  <rect width="36" height="36" rx="8" fill="#69A6F1"/>
  <g clip-path="url(#clip0_606_1622)">
    <path fill-rule="evenodd" clip-rule="evenodd" d="M29.9627 21.5096C29.8918 21.936 29.8159 22.2391 29.7047 22.5935C28.8952 25.0951 27.2307 26.631 24.6809 27.155C24.509 27.1894 24.3365 27.2161 24.1606 27.2335C23.7672 27.2725 23.5536 26.7862 23.5745 26.3914C23.5923 26.0561 23.8177 25.7206 24.1511 25.6812C24.7292 25.6128 25.2787 25.4541 25.7939 25.1721C27.2964 24.3554 28.1919 23.0866 28.4044 21.3607C28.7282 18.6742 26.8968 16.2702 24.2407 15.8798C24.0333 15.849 23.8208 15.8336 23.6134 15.8336C23.2845 15.8336 23.0467 15.6846 22.9102 15.3866C22.7736 15.0887 22.8393 14.8062 23.0316 14.5494C23.325 14.1539 23.6196 13.7597 23.9142 13.3655C24.2089 12.9713 24.5038 12.5768 24.7972 12.1814C25.0097 11.8963 25.2222 11.6099 25.4347 11.3235C25.6472 11.0372 25.8597 10.7508 26.0721 10.4657C26.0775 10.4586 26.0832 10.4517 26.0891 10.4447C26.1534 10.3673 26.0691 10.2859 25.9684 10.2859H25.9052H22.3233C21.8022 10.2859 21.4784 9.98795 21.4835 9.51537C21.4835 9.04279 21.8123 8.75 22.3334 8.75H27.5798C27.9187 8.75 28.1919 8.84246 28.3589 9.16094C28.5309 9.48969 28.4601 9.78248 28.2527 10.065C27.2054 11.4827 26.1582 12.9056 25.1109 14.3285C25.104 14.3384 25.0974 14.3479 25.0906 14.3577C25.0566 14.4068 25.0789 14.4757 25.1359 14.4935C25.1675 14.5034 25.1989 14.5132 25.2302 14.523C25.5752 14.6305 25.9092 14.7346 26.229 14.8884C28.2274 15.8593 29.4365 17.4465 29.8716 19.645C29.9627 20.0971 30.0537 20.7597 29.9627 21.5096ZM17.5372 24.2889C17.2745 23.8396 17.0748 23.3606 16.9112 22.8244C16.8936 22.7666 16.8138 22.7577 16.7841 22.8104C16.7724 22.8312 16.7623 22.849 16.753 22.866C15.731 24.9618 13.672 26.02 11.4105 25.6039C8.86572 25.1365 7.10513 22.4705 7.58069 19.8919C8.03096 17.4673 10.2317 15.6232 12.7815 15.8544C13.8693 15.9571 14.8153 16.3681 15.6198 17.1077C16.7277 18.1248 17.2235 19.4192 17.2387 20.9141C17.2539 22.0082 17.5321 23.0252 18.0633 23.9653C18.9386 25.5166 20.2287 26.5285 21.9185 27.0165C22.3029 27.1295 22.6621 26.96 22.8291 26.6107C22.9859 26.2871 22.8898 25.907 22.6014 25.6707C22.4939 25.5852 22.3691 25.5481 22.243 25.5104C22.2326 25.5074 22.2222 25.5043 22.2119 25.5012C20.1275 24.8796 18.7514 22.8968 18.7565 20.8421C18.7615 19.0058 18.7565 17.1745 18.7514 15.3381V15.3304C18.7514 15.2072 18.7413 15.0787 18.721 14.9503C18.6603 14.5599 18.3416 14.2825 17.9723 14.2877C17.6029 14.2928 17.2994 14.5599 17.2387 14.94C17.1966 15.2059 17.2021 15.4739 17.2076 15.7413C17.2107 15.8924 17.2138 16.0432 17.2083 16.1934C17.2083 16.2178 17.21 16.2424 17.2118 16.2674C17.2133 16.2897 17.2149 16.3124 17.2152 16.3352C17.2168 16.4295 17.1084 16.4475 17.0454 16.3773C16.9913 16.3171 16.9396 16.2596 16.8846 16.2037C16.7833 16.1009 16.6771 16.0034 16.5658 15.9109C14.9115 14.488 13.0193 13.9743 10.9046 14.4777C7.76282 15.2226 5.71385 18.1762 6.03258 21.4175C6.18435 22.9585 6.79146 24.2838 7.87412 25.3574C9.43236 26.9035 11.3093 27.5148 13.4646 27.1449C15.1391 26.8573 16.4748 25.9789 17.4967 24.6074C17.5726 24.5047 17.613 24.4173 17.5372 24.2889Z" fill="white"/>
  </g>
  <defs>
    <clipPath id="clip0_606_1622">
      <rect width="24" height="24" fill="white" transform="translate(6 6)"/>
    </clipPath>
  </defs>
</svg>
