<svg width="96" height="96" viewBox="0 0 96 96" fill="none" xmlns="http://www.w3.org/2000/svg">
  <rect width="96" height="96" rx="24" fill="white"/>
  <path fill-rule="evenodd" clip-rule="evenodd" d="M58.4803 83.9992C46.5711 72.479 40.616 66.7192 40.616 66.7192L28.9685 78.2392C27.7703 79.8193 28.0799 82.0715 29.66 83.2697C30.2842 83.743 31.0461 83.9992 31.8295 83.9992C31.849 83.9992 31.8686 83.9992 31.8881 83.9992C40.7522 83.9992 49.6163 83.9992 58.4803 83.9992Z" fill="#FF4F12"/>
  <path fill-rule="evenodd" clip-rule="evenodd" d="M69.9998 37.92L44.0798 12L29.6082 27.0746C27.8061 28.9517 26.7998 31.4531 26.7998 34.0553L26.7998 78.24C26.7998 81.4212 29.3786 84 32.5598 84C30.589 84 28.9913 82.4023 28.9913 80.4315C28.9913 79.4827 29.3691 78.573 30.0413 77.9034" fill="#7800FF"/>
</svg>
