<svg preserveAspectRatio="none" width="100%" height="100%" overflow="visible" style="display: block;" viewBox="0 0 43.2 72" fill="none" xmlns="http://www.w3.org/2000/svg">
<g id="logo">
<path id="Vector" fill-rule="evenodd" clip-rule="evenodd" d="M31.6807 71.9994C19.7714 60.4792 13.8164 54.7194 13.8164 54.7194L2.16883 66.2394C0.97066 67.8195 1.28025 70.0717 2.86032 71.2699C3.48453 71.7432 4.24642 71.9994 5.0298 71.9994C5.04935 71.9994 5.0689 71.9994 5.08844 71.9994C13.9525 71.9994 22.8166 71.9994 31.6807 71.9994Z" fill="var(--fill-0, #FF4F12)"/>
<path id="Vector_2" fill-rule="evenodd" clip-rule="evenodd" d="M43.2 25.92L17.28 0L2.80842 15.0746C1.00632 16.9517 0 19.4531 0 22.0553L0 66.24C0 69.4212 2.57884 72 5.76 72C3.78917 72 2.1915 70.4023 2.1915 68.4315C2.1915 67.4827 2.56933 66.573 3.24149 65.9034" fill="var(--fill-0, #7800FF)"/>
</g>
</svg>
