<svg width="36" height="36" viewBox="0 0 36 36" fill="none" xmlns="http://www.w3.org/2000/svg">
  <rect width="36" height="36" rx="8" fill="white"/>
  <path fill-rule="evenodd" clip-rule="evenodd" d="M22.3202 31.9998C17.6888 27.5197 15.373 25.2798 15.373 25.2798L10.8434 29.7598C10.3774 30.3743 10.4978 31.2501 11.1123 31.7161C11.355 31.9001 11.6513 31.9998 11.956 31.9998C11.9636 31.9998 11.9712 31.9998 11.9788 31.9998C15.4259 31.9998 18.873 31.9998 22.3202 31.9998Z" fill="#FF4F12"/>
  <path fill-rule="evenodd" clip-rule="evenodd" d="M26.8 14.08L16.72 4L11.0922 9.86233C10.3913 10.5923 10 11.5651 10 12.5771L10 29.76C10 30.9971 11.0029 32 12.24 32C11.4736 32 10.8522 31.3787 10.8522 30.6123C10.8522 30.2433 10.9992 29.8895 11.2606 29.6291" fill="#7800FF"/>
</svg>
