<svg width="36" height="36" viewBox="0 0 36 36" fill="none" xmlns="http://www.w3.org/2000/svg">
  <rect width="36" height="36" rx="8" fill="#007BFB"/>
  <path d="M27.9834 17.711C28.1648 17.8924 28.1647 18.1863 27.9834 18.3676L15.4101 30.9403C15.2288 31.1216 14.9348 31.1216 14.7535 30.9403L11.1425 27.3292C10.9612 27.1479 10.9612 26.854 11.1425 26.6727L23.7159 14.1C23.8972 13.9187 24.1911 13.9187 24.3724 14.1L27.9834 17.711ZM22.1868 11.9176C22.3681 12.0989 22.3681 12.3928 22.1868 12.5741L18.5733 16.1876C18.392 16.3689 18.0981 16.3689 17.9167 16.1876L11.136 9.40597C10.9547 9.22467 10.9547 8.93078 11.136 8.74948L14.7494 5.13598C14.9307 4.95466 15.2247 4.95468 15.406 5.136L22.1868 11.9176Z" fill="white"/>
</svg>
