<svg width="96" height="96" viewBox="0 0 96 96" fill="none" xmlns="http://www.w3.org/2000/svg">
  <rect width="96" height="96" rx="24" fill="white"/>
  <path d="M70.6273 47.1424C71.124 47.6391 71.1238 48.444 70.6273 48.9404L36.1959 83.3702C35.6994 83.8666 34.8943 83.8666 34.3978 83.3702L24.5093 73.4813C24.0128 72.9849 24.0128 72.18 24.5093 71.6835L58.9409 37.2538C59.4374 36.7573 60.2423 36.7573 60.7387 37.2538L70.6273 47.1424ZM54.7536 31.2774C55.2501 31.7739 55.2501 32.5787 54.7536 33.0752L44.8582 42.9706C44.3617 43.4671 43.5569 43.4671 43.0601 42.9706L24.4915 24.3995C23.995 23.9031 23.995 23.0982 24.4915 22.6017L34.3866 12.7064C34.8831 12.2098 35.6882 12.2099 36.1847 12.7064L54.7536 31.2774Z" fill="#007BFB"/>
</svg>
